<!-- Logo Teranga Foncier - Baobab Design -->
<svg width="200" height="100" viewBox="0 0 200 100" xmlns="http://www.w3.org/2000/svg">
  <!-- Fond -->
  <rect width="200" height="100" fill="white" rx="8"/>
  
  <!-- Baobab Trunk -->
  <rect x="35" y="40" width="15" height="35" fill="#8B4513" rx="2"/>
  
  <!-- Baobab Crown -->
  <circle cx="42" cy="35" r="20" fill="#D2691E" opacity="0.9"/>
  <circle cx="35" cy="28" r="15" fill="#CD853F" opacity="0.8"/>
  <circle cx="50" cy="30" r="18" fill="#DEB887" opacity="0.8"/>
  
  <!-- Branches -->
  <path d="M25,40 Q15,30 20,25 M60,40 Q70,30 65,25 M42,20 Q42,10 38,8" 
        stroke="#8B4513" stroke-width="3" fill="none"/>
  
  <!-- Buildings -->
  <rect x="70" y="35" width="12" height="40" fill="#1E3A8A" rx="1"/>
  <rect x="85" y="25" width="15" height="50" fill="#2563EB" rx="1"/>
  <rect x="103" y="30" width="12" height="45" fill="#1E40AF" rx="1"/>
  
  <!-- Building tops -->
  <polygon points="76,35 76,30 82,30 82,35" fill="#60A5FA"/>
  <polygon points="92,25 87,20 97,20" fill="#60A5FA"/>
  <polygon points="109,30 105,25 115,25" fill="#60A5FA"/>
  
  <!-- Ground/Land -->
  <ellipse cx="100" cy="85" rx="80" ry="8" fill="#DEB887" opacity="0.6"/>
  
  <!-- Text -->
  <text x="130" y="35" font-family="Arial, sans-serif" font-size="18" font-weight="bold" fill="#8B4513">TERANGA</text>
  <text x="130" y="55" font-family="Arial, sans-serif" font-size="18" font-weight="bold" fill="#D2691E">FONCIER</text>
  <text x="130" y="70" font-family="Arial, sans-serif" font-size="8" fill="#666">Investissez en Toute Sécurité</text>
  <text x="130" y="80" font-family="Arial, sans-serif" font-size="8" fill="#666">Vendez en Toute Confiance</text>
</svg>
